<svg xmlns="http://www.w3.org/2000/svg" width="88" height="88" data-name="Layer 1" viewBox="0 0 88 88"><path d="M44,66.78A22.78,22.78,0,1,1,66.78,44,22.81,22.81,0,0,1,44,66.78Zm0-42.21A19.43,19.43,0,1,0,63.43,44,19.45,19.45,0,0,0,44,24.57Z"/><path d="M54.12,45.67a1.63,1.63,0,0,1-1.18-.49l-7.11-7.1a1.68,1.68,0,0,1,0-2.37,1.67,1.67,0,0,1,2.37,0l7.11,7.1a1.67,1.67,0,0,1-1.19,2.86Z"/><path d="M47,52.78a1.68,1.68,0,0,1-1.18-2.86l7.1-7.11a1.68,1.68,0,0,1,2.37,2.37L48.2,52.29a1.71,1.71,0,0,1-1.18.49Zm-4-7.11a1.67,1.67,0,0,1-1.19-.49l-7.1-7.1a1.68,1.68,0,0,1,0-2.37,1.67,1.67,0,0,1,2.37,0l7.11,7.1a1.67,1.67,0,0,1-1.19,2.86Z"/><path d="M36,52.78a1.68,1.68,0,0,1-1.18-2.86l7.11-7.11a1.67,1.67,0,0,1,2.37,0,1.68,1.68,0,0,1,0,2.37l-7.11,7.11a1.72,1.72,0,0,1-1.19.49Z"/></svg>